<svg aria-hidden="true" style="position: absolute; width: 0; height: 0; overflow: hidden;" version="1.1" xmlns="http://www.w3.org/2000/svg" xmlns:xlink="http://www.w3.org/1999/xlink">
<defs>
<symbol id="location" viewBox="0 0 32 32">
<path d="M21 6l-10-4-11 4v24l11-4 10 4 11-4v-24l-11 4zM12 4.554l8 3.2v19.692l-8-3.2v-19.692zM2 7.401l8-2.909v19.744l-8 2.909v-19.744zM30 24.599l-8 2.909v-19.744l8-2.909v19.744z"></path>
</symbol>
<symbol id="phone" viewBox="0 0 32 32">
<path   d="M26.6 28q-4.167 0-8.233-1.817t-7.4-5.15-5.15-7.4-1.817-8.233q0-0.6 0.4-1t1-0.4h5.4q0.467 0 0.833 0.317t0.433 0.75l0.867 4.667q0.067 0.533-0.033 0.9t-0.367 0.633l-3.233 3.267q0.667 1.233 1.583 2.383t2.017 2.217q1.033 1.033 2.167 1.917t2.4 1.617l3.133-3.133q0.3-0.3 0.783-0.45t0.95-0.083l4.6 0.933q0.467 0.133 0.767 0.483t0.3 0.783v5.4q0 0.6-0.4 1t-1 0.4zM8.033 12l2.2-2.2-0.567-3.133h-2.967q0.167 1.367 0.467 2.7t0.867 2.633zM19.967 23.933q1.3 0.567 2.65 0.9t2.717 0.433v-2.933l-3.133-0.633-2.233 2.233z"></path>
</symbol>
<symbol id="instagram" viewBox="0 0 32 32">
<path d="M16 2.881c4.275 0 4.781 0.019 6.462 0.094 1.563 0.069 2.406 0.331 2.969 0.55 0.744 0.288 1.281 0.638 1.837 1.194 0.563 0.563 0.906 1.094 1.2 1.838 0.219 0.563 0.481 1.412 0.55 2.969 0.075 1.688 0.094 2.194 0.094 6.463s-0.019 4.781-0.094 6.463c-0.069 1.563-0.331 2.406-0.55 2.969-0.288 0.744-0.637 1.281-1.194 1.837-0.563 0.563-1.094 0.906-1.837 1.2-0.563 0.219-1.413 0.481-2.969 0.55-1.688 0.075-2.194 0.094-6.463 0.094s-4.781-0.019-6.463-0.094c-1.563-0.069-2.406-0.331-2.969-0.55-0.744-0.288-1.281-0.637-1.838-1.194-0.563-0.563-0.906-1.094-1.2-1.837-0.219-0.563-0.481-1.413-0.55-2.969-0.075-1.688-0.094-2.194-0.094-6.463s0.019-4.781 0.094-6.463c0.069-1.563 0.331-2.406 0.55-2.969 0.288-0.744 0.638-1.281 1.194-1.838 0.563-0.563 1.094-0.906 1.838-1.2 0.563-0.219 1.412-0.481 2.969-0.55 1.681-0.075 2.188-0.094 6.463-0.094zM16 0c-4.344 0-4.887 0.019-6.594 0.094-1.7 0.075-2.869 0.35-3.881 0.744-1.056 0.412-1.95 0.956-2.837 1.85-0.894 0.888-1.438 1.781-1.85 2.831-0.394 1.019-0.669 2.181-0.744 3.881-0.075 1.713-0.094 2.256-0.094 6.6s0.019 4.887 0.094 6.594c0.075 1.7 0.35 2.869 0.744 3.881 0.413 1.056 0.956 1.95 1.85 2.837 0.887 0.887 1.781 1.438 2.831 1.844 1.019 0.394 2.181 0.669 3.881 0.744 1.706 0.075 2.25 0.094 6.594 0.094s4.888-0.019 6.594-0.094c1.7-0.075 2.869-0.35 3.881-0.744 1.050-0.406 1.944-0.956 2.831-1.844s1.438-1.781 1.844-2.831c0.394-1.019 0.669-2.181 0.744-3.881 0.075-1.706 0.094-2.25 0.094-6.594s-0.019-4.887-0.094-6.594c-0.075-1.7-0.35-2.869-0.744-3.881-0.394-1.063-0.938-1.956-1.831-2.844-0.887-0.887-1.781-1.438-2.831-1.844-1.019-0.394-2.181-0.669-3.881-0.744-1.712-0.081-2.256-0.1-6.6-0.1v0z"></path>
<path d="M16 7.781c-4.537 0-8.219 3.681-8.219 8.219s3.681 8.219 8.219 8.219 8.219-3.681 8.219-8.219c0-4.537-3.681-8.219-8.219-8.219zM16 21.331c-2.944 0-5.331-2.387-5.331-5.331s2.387-5.331 5.331-5.331c2.944 0 5.331 2.387 5.331 5.331s-2.387 5.331-5.331 5.331z"></path>
<path d="M26.462 7.456c0 1.060-0.859 1.919-1.919 1.919s-1.919-0.859-1.919-1.919c0-1.060 0.859-1.919 1.919-1.919s1.919 0.859 1.919 1.919z"></path>
</symbol>
<symbol id="feedback" viewBox="0 0 32 32">
<path   d="M8 18.667h4.067l6.667-6.667q0.3-0.3 0.45-0.683t0.15-0.75-0.167-0.717-0.433-0.65l-1.2-1.267q-0.3-0.3-0.667-0.45t-0.767-0.15q-0.367 0-0.75 0.15t-0.683 0.45l-6.667 6.667v4.067zM17.333 10.567v0zM10 16.667v-1.267l3.367-3.367 0.667 0.6 0.6 0.667-3.367 3.367h-1.267zM14.033 12.633l0.6 0.667-1.267-1.267 0.667 0.6zM14.9 18.667h9.1v-2.667h-6.433l-2.667 2.667zM2.667 29.333v-24q0-1.1 0.783-1.883t1.883-0.783h21.333q1.1 0 1.883 0.783t0.783 1.883v16q0 1.1-0.783 1.883t-1.883 0.783h-18.667l-5.333 5.333zM6.867 21.333h19.8v-16h-21.333v17.5l1.533-1.5zM5.333 21.333v0z"></path>
</symbol>
<symbol id="table" viewBox="0 0 32 32">
<path   d="M5.767 12h20.467l-1.133-4h-18.167l-1.167 4zM22.4 14.667h-12.767l-0.367 2.667h13.467l-0.333-2.667zM5.333 26.667l1.633-12h-2.967q-0.667 0-1.050-0.533t-0.217-1.167l1.9-6.667q0.133-0.433 0.467-0.7t0.8-0.267h20.2q0.467 0 0.8 0.267t0.467 0.7l1.9 6.667q0.167 0.633-0.217 1.167t-1.050 0.533h-2.933l1.6 12h-2.667l-0.9-6.667h-14.2l-0.9 6.667h-2.667z"></path>
</symbol>
<symbol id="menu" viewBox="0 0 32 32">
<path   d="M5.833 28l-1.867-1.867 13.667-13.667q-0.6-1.4-0.167-3.167t1.9-3.167q1.767-1.767 3.933-2.067t3.533 1.067 1.067 3.533-2.067 3.933q-1.4 1.467-3.167 1.9t-3.167-0.167l-1.667 1.667 10.133 10.133-1.867 1.867-10.133-10.067-10.133 10.067zM9.767 16.6l-4-4q-1.8-1.8-1.8-4.3t1.8-4.3l8.267 8.333-4.267 4.267z"></path>
</symbol>
</defs>
</svg>
